<mxfile host="65bd71144e">
    <diagram id="HfTmLqVFenj7waQnPsbv" name="Страница 1">
        <mxGraphModel dx="543" dy="314" grid="1" gridSize="10" guides="1" tooltips="1" connect="1" arrows="1" fold="1" page="1" pageScale="1" pageWidth="827" pageHeight="1169" math="0" shadow="0">
            <root>
                <mxCell id="0"/>
                <mxCell id="1" parent="0"/>
                <mxCell id="14" style="edgeStyle=none;html=1;" parent="1" target="15" edge="1">
                    <mxGeometry relative="1" as="geometry">
                        <mxPoint x="150" y="210" as="targetPoint"/>
                        <mxPoint x="290" y="110" as="sourcePoint"/>
                    </mxGeometry>
                </mxCell>
                <mxCell id="24" style="edgeStyle=none;html=1;" parent="1" source="15" target="23" edge="1">
                    <mxGeometry relative="1" as="geometry"/>
                </mxCell>
                <mxCell id="15" value="имя" style="rounded=1;whiteSpace=wrap;html=1;arcSize=50;" parent="1" vertex="1">
                    <mxGeometry x="430" y="230" width="120" height="60" as="geometry"/>
                </mxCell>
                <mxCell id="31" style="edgeStyle=none;html=1;entryX=0.5;entryY=0.5;entryDx=0;entryDy=0;entryPerimeter=0;" parent="1" source="23" target="28" edge="1">
                    <mxGeometry relative="1" as="geometry"/>
                </mxCell>
                <mxCell id="32" style="edgeStyle=none;html=1;" parent="1" source="23" edge="1">
                    <mxGeometry relative="1" as="geometry">
                        <mxPoint x="440" y="590" as="targetPoint"/>
                    </mxGeometry>
                </mxCell>
                <mxCell id="33" style="edgeStyle=none;html=1;" parent="1" source="23" edge="1">
                    <mxGeometry relative="1" as="geometry">
                        <mxPoint x="360" y="580" as="targetPoint"/>
                        <Array as="points">
                            <mxPoint x="400" y="460"/>
                        </Array>
                    </mxGeometry>
                </mxCell>
                <mxCell id="34" style="edgeStyle=none;html=1;" parent="1" source="23" edge="1">
                    <mxGeometry relative="1" as="geometry">
                        <mxPoint x="530" y="580" as="targetPoint"/>
                    </mxGeometry>
                </mxCell>
                <mxCell id="39" style="edgeStyle=none;html=1;" parent="1" source="23" edge="1">
                    <mxGeometry relative="1" as="geometry">
                        <mxPoint x="640" y="570" as="targetPoint"/>
                    </mxGeometry>
                </mxCell>
                <mxCell id="23" value="здравствуйте ник" style="rounded=1;whiteSpace=wrap;html=1;" parent="1" vertex="1">
                    <mxGeometry x="390" y="380" width="110" height="60" as="geometry"/>
                </mxCell>
                <mxCell id="28" value="регестрация была" style="shape=umlActor;verticalLabelPosition=bottom;verticalAlign=top;html=1;outlineConnect=0;fillColor=#6a00ff;fontColor=#ffffff;strokeColor=#3700CC;gradientColor=#330066;shadow=1;" parent="1" vertex="1">
                    <mxGeometry x="320" y="380" width="30" height="60" as="geometry"/>
                </mxCell>
                <mxCell id="49" style="edgeStyle=none;html=1;" parent="1" source="35" edge="1">
                    <mxGeometry relative="1" as="geometry">
                        <mxPoint x="292.1875" y="750" as="targetPoint"/>
                    </mxGeometry>
                </mxCell>
                <mxCell id="35" value="записать задачу&amp;nbsp;" style="whiteSpace=wrap;html=1;aspect=fixed;shadow=1;gradientColor=#330066;" parent="1" vertex="1">
                    <mxGeometry x="310" y="585" width="70" height="70" as="geometry"/>
                </mxCell>
                <mxCell id="38" value="паказать все задачи" style="whiteSpace=wrap;html=1;aspect=fixed;shadow=1;fillColor=#a20025;fontColor=#ffffff;strokeColor=#6F0000;gradientColor=#330000;" parent="1" vertex="1">
                    <mxGeometry x="490" y="585" width="65" height="65" as="geometry"/>
                </mxCell>
                <mxCell id="52" style="edgeStyle=none;html=1;fontColor=#000000;" parent="1" source="40" edge="1">
                    <mxGeometry relative="1" as="geometry">
                        <mxPoint x="440" y="750" as="targetPoint"/>
                    </mxGeometry>
                </mxCell>
                <mxCell id="40" value="удалить задачу" style="whiteSpace=wrap;html=1;aspect=fixed;shadow=1;gradientColor=#330000;" parent="1" vertex="1">
                    <mxGeometry x="410" y="585" width="60" height="60" as="geometry"/>
                </mxCell>
                <mxCell id="69" style="edgeStyle=none;html=1;" edge="1" parent="1" source="41">
                    <mxGeometry relative="1" as="geometry">
                        <mxPoint x="690" y="608" as="targetPoint"/>
                    </mxGeometry>
                </mxCell>
                <mxCell id="41" value="задачи на день" style="whiteSpace=wrap;html=1;aspect=fixed;shadow=1;fillColor=#008a00;fontColor=#ffffff;strokeColor=#005700;" parent="1" vertex="1">
                    <mxGeometry x="600" y="575" width="65" height="65" as="geometry"/>
                </mxCell>
                <mxCell id="53" style="edgeStyle=none;html=1;fontColor=#000000;entryX=0.6;entryY=0.005;entryDx=0;entryDy=0;entryPerimeter=0;" parent="1" source="51" edge="1" target="55">
                    <mxGeometry relative="1" as="geometry">
                        <mxPoint x="307.8571428571429" y="890" as="targetPoint"/>
                    </mxGeometry>
                </mxCell>
                <mxCell id="51" value="вписать задачу" style="rounded=1;whiteSpace=wrap;html=1;shadow=1;gradientColor=#d5739d;fillColor=#e6d0de;strokeColor=#996185;" parent="1" vertex="1">
                    <mxGeometry x="200" y="745" width="120" height="50" as="geometry"/>
                </mxCell>
                <mxCell id="55" value="дата" style="rounded=1;whiteSpace=wrap;html=1;shadow=1;labelBackgroundColor=#006633;fontColor=#ffffff;fillColor=#60a917;strokeColor=#2D7600;" parent="1" vertex="1">
                    <mxGeometry x="185" y="890" width="120" height="60" as="geometry"/>
                </mxCell>
                <mxCell id="57" style="edgeStyle=none;html=1;fontColor=#000000;" parent="1" source="56" target="58" edge="1">
                    <mxGeometry relative="1" as="geometry">
                        <mxPoint x="440" y="890" as="targetPoint"/>
                    </mxGeometry>
                </mxCell>
                <mxCell id="56" value="выбр задачи" style="rounded=1;whiteSpace=wrap;html=1;shadow=1;labelBackgroundColor=#006633;fontColor=#000000;gradientColor=#330000;" parent="1" vertex="1">
                    <mxGeometry x="380" y="750" width="120" height="60" as="geometry"/>
                </mxCell>
                <mxCell id="58" value="уточнение" style="rounded=1;whiteSpace=wrap;html=1;shadow=1;labelBackgroundColor=#006633;fontColor=#000000;gradientColor=#330000;" parent="1" vertex="1">
                    <mxGeometry x="380" y="900" width="120" height="60" as="geometry"/>
                </mxCell>
                <mxCell id="64" style="edgeStyle=none;html=1;fontColor=#000000;" parent="1" source="63" target="65" edge="1">
                    <mxGeometry relative="1" as="geometry">
                        <mxPoint x="125" y="710" as="targetPoint"/>
                    </mxGeometry>
                </mxCell>
                <mxCell id="63" value="пользавотель" style="shape=umlActor;verticalLabelPosition=bottom;verticalAlign=top;html=1;outlineConnect=0;shadow=1;labelBackgroundColor=#006633;fillColor=#fff2cc;strokeColor=#d6b656;" parent="1" vertex="1">
                    <mxGeometry x="110" y="740" width="30" height="60" as="geometry"/>
                </mxCell>
                <mxCell id="65" value="ВАУ КАК КЛАССНО" style="rounded=1;whiteSpace=wrap;html=1;shadow=1;labelBackgroundColor=#006633;" parent="1" vertex="1">
                    <mxGeometry x="65" y="655" width="120" height="60" as="geometry"/>
                </mxCell>
                <mxCell id="66" value="ВАУ КАК КЛАССНО&amp;nbsp;" style="shape=callout;whiteSpace=wrap;html=1;perimeter=calloutPerimeter;shadow=1;labelBackgroundColor=#006633;fontColor=#000000;gradientColor=#330000;" parent="1" vertex="1">
                    <mxGeometry x="65" y="660" width="120" height="80" as="geometry"/>
                </mxCell>
                <mxCell id="68" value="регистрациия" style="rounded=1;whiteSpace=wrap;html=1;" vertex="1" parent="1">
                    <mxGeometry x="230" y="50" width="120" height="60" as="geometry"/>
                </mxCell>
                <mxCell id="70" value="Actor" style="shape=umlActor;verticalLabelPosition=bottom;verticalAlign=top;html=1;outlineConnect=0;" vertex="1" parent="1">
                    <mxGeometry x="350" y="1420" width="30" height="60" as="geometry"/>
                </mxCell>
                <mxCell id="71" value="Actor" style="shape=umlActor;verticalLabelPosition=bottom;verticalAlign=top;html=1;outlineConnect=0;" vertex="1" parent="1">
                    <mxGeometry x="380" y="1420" width="30" height="60" as="geometry"/>
                </mxCell>
                <mxCell id="72" value="Actor" style="shape=umlActor;verticalLabelPosition=bottom;verticalAlign=top;html=1;outlineConnect=0;" vertex="1" parent="1">
                    <mxGeometry x="530" y="1420" width="30" height="60" as="geometry"/>
                </mxCell>
                <mxCell id="73" style="edgeStyle=none;html=1;exitX=0.5;exitY=0.5;exitDx=0;exitDy=0;exitPerimeter=0;" edge="1" parent="1" source="72" target="72">
                    <mxGeometry relative="1" as="geometry"/>
                </mxCell>
                <mxCell id="74" style="edgeStyle=none;html=1;exitX=0.5;exitY=0;exitDx=0;exitDy=0;exitPerimeter=0;" edge="1" parent="1" source="72" target="72">
                    <mxGeometry relative="1" as="geometry"/>
                </mxCell>
                <mxCell id="75" value="" style="endArrow=classic;startArrow=classic;html=1;" edge="1" parent="1">
                    <mxGeometry width="50" height="50" relative="1" as="geometry">
                        <mxPoint x="480" y="1360" as="sourcePoint"/>
                        <mxPoint x="530" y="1310" as="targetPoint"/>
                    </mxGeometry>
                </mxCell>
                <mxCell id="76" value="" style="verticalLabelPosition=bottom;verticalAlign=top;html=1;shape=mxgraph.basic.heart" vertex="1" parent="1">
                    <mxGeometry x="360" y="1380" width="40" height="40" as="geometry"/>
                </mxCell>
            </root>
        </mxGraphModel>
    </diagram>
</mxfile>